# xmcd CD database file
#
# Track frame offsets:
#	150
#	32958
#	66583
#	92921
#	108398
#	128180
#	154647
#	176505
#	206787
#
# Disc length: 3043 seconds
#
# Revision: 0
# Processed by: cddbd v1.5.2PL0 Copyright (c) Steve Scherf et al.
# Submitted via: CDex 1.50
#
DISCID=810be109
DTITLE=Ricky Ford and Ze Big Band - 7095_Ford,Richards,Burgazzi,Delouya,Guesnier,Goldberg,Cogez,Meyer,Simon,Dandin,Grimault,Le Dro,Ravenel,Charenton,Pinot,Belloir,Gaudiche,Manchon,Ruellan
DYEAR=1900
DGENRE=Jazz
TTITLE0=7095 (Ricky Ford)
TTITLE1=Green Note  (Ricky Ford)
TTITLE2=This Our Love (Ricky Ford)
TTITLE3=Si tu vois ma mère (Bechet&Broussole, Bechet, Ricky Ford)
TTITLE4=Mara (Ricky Ford)
TTITLE5=You Are Not Alone (Robert Kelly)
TTITLE6=I Got A Woman (Ray Charles, Renald Richard)
TTITLE7=The Great Pretender (Buck Ram, Ricky Ford)
TTITLE8=Hozgeldeniz 2 (Ricky Ford)
EXTD=
EXTT0=
EXTT1=
EXTT2=
EXTT3=
EXTT4=
EXTT5=
EXTT6=
EXTT7=
EXTT8=
PLAYORDER=
